<mxfile host="app.diagrams.net" modified="2024-07-14T17:25:00.797Z" agent="Mozilla/5.0 (Macintosh; Intel Mac OS X 10.15; rv:128.0) Gecko/20100101 Firefox/128.0" version="24.6.5" etag="4ZqQgywurGjCg7CVFoNM" type="github">
  <diagram name="Page-1" id="hZOYdBp1bdSwAkou4KP0">
    <mxGraphModel>
      <root>
        <mxCell id="0" />
        <mxCell id="1" parent="0" />
      </root>
    </mxGraphModel>
  </diagram>
</mxfile>
